<?xml version="1.0" encoding="utf-8"?>
<svg xmlns="http://www.w3.org/2000/svg" viewBox="0 170.2 361.3 329.8">
  <g id="Layer_1" transform="matrix(1, 0, 0, 1, -159.093597, 280.612823)">
    <g transform="matrix(1, 0, 0, 1, -81.206406, -243.21283)">
      <g>
        <defs>
          <path id="SVGID_1_" d="M240.3,322.5v45.4l41.9,37.6V284.3L240.3,322.5z M303.2,266.1v158.1l17.6,15.7l24.3-21.9V228.6 L303.2,266.1z M366.1,209.8v189.6l41.9-37.5V172.2L366.1,209.8z M418.5,246.7v36.4l33.4,15.7l0.1,0.4l-21.5,42.4l21.4,20.1 l59.8-68l-18.3-27.3l0,0l9.4-13.7l0.5-0.1l5.8,30.1l28.2-1.6l16.5-43.8l29.1,2.3l18.7-51l-25.7,38.2l-29.2-9.1l-94.5-84.9 l-33.6,30.1v31.3l33.6-27.6l81.8,57.1l-2.9,43.1l-12.8,1.9l-3.9-38.7l-40,16.8l14.8,49.6l-38.6,49l-7.4-9.8l25.8-46L418.5,246.7z "/>
        </defs>
        <path d="M240.3,322.5v45.4l41.9,37.6V284.3L240.3,322.5z M303.2,266.1v158.1l17.6,15.7l24.3-21.9V228.6 L303.2,266.1z M366.1,209.8v189.6l41.9-37.5V172.2L366.1,209.8z M418.5,246.7v36.4l33.4,15.7l0.1,0.4l-21.5,42.4l21.4,20.1 l59.8-68l-18.3-27.3l0,0l9.4-13.7l0.5-0.1l5.8,30.1l28.2-1.6l16.5-43.8l29.1,2.3l18.7-51l-25.7,38.2l-29.2-9.1l-94.5-84.9 l-33.6,30.1v31.3l33.6-27.6l81.8,57.1l-2.9,43.1l-12.8,1.9l-3.9-38.7l-40,16.8l14.8,49.6l-38.6,49l-7.4-9.8l25.8-46L418.5,246.7z " style="overflow: visible; fill: rgb(255, 255, 255);"/>
      </g>
      <g>
        <g>
          <path class="st0" d="M418.4,382.7h14.6c5.7,0,11.5,2.5,11.5,9c0,4-2.7,6.7-6.5,7.8v0.1c4.7,0.5,8.1,4,8.1,8.6 c0,7.8-7.1,10.2-14.2,10.2h-13.5V382.7z M425.1,397.2h6.1c4.5,0,6.7-1.8,6.7-4.5c0-3.1-2.2-4.6-7.3-4.6h-5.5V397.2z M425.1,412.9 h6.2c3.4,0,8.2-0.6,8.2-5.2c0-3.7-2.5-5-8-5h-6.4V412.9z" style="fill: rgb(255, 255, 255);"/>
          <path class="st0" d="M490.8,405.3c0,8.6-6.5,14-15.1,14c-8.6,0-15.1-5.4-15.1-14v-22.6h6.7v22.4c0,3.5,2,8.2,8.4,8.2 c6.4,0,8.4-4.6,8.4-8.2v-22.4h6.7V405.3z" style="fill: rgb(255, 255, 255);"/>
          <polygon class="st0" points="507,382.7 513.7,382.7 513.7,412.6 529.7,412.6 529.7,418.4 507,418.4 &#9;&#9;&#9;" style="fill: rgb(255, 255, 255);"/>
          <polygon class="st0" points="542.5,382.7 549.2,382.7 549.2,412.6 565.2,412.6 565.2,418.4 542.5,418.4 &#9;&#9;&#9;" style="fill: rgb(255, 255, 255);"/>
          <path class="st0" d="M596.4,390.4c-1.4-1.9-4-2.8-6.6-2.8c-3.1,0-6.2,1.3-6.2,4.6c0,7.2,17.8,3.1,17.8,15.8 c0,7.7-6.4,11.4-13.7,11.4c-4.7,0-9.2-1.4-12.3-4.8l5-4.6c1.6,2.4,4.5,3.7,7.4,3.7c3.1,0,6.6-1.6,6.6-4.9 c0-7.8-17.8-3.3-17.8-16.1c0-7.4,6.9-10.8,13.8-10.8c3.9,0,7.9,1.1,10.8,3.7L596.4,390.4z" style="fill: rgb(255, 255, 255);"/>
        </g>
        <g>
          <polygon class="st0" points="431.6,448.5 418.4,429.6 424.5,429.6 434,444 443.7,429.6 449.5,429.6 436.3,448.5 436.3,462.5 &#10;&#9;&#9;&#9;&#9;431.6,462.5 &#9;&#9;&#9;" style="fill: rgb(255, 255, 255);"/>
          <path class="st0" d="M460.7,429.6h4.3l14.9,33h-5.5l-3.5-8.1h-16.6l-3.4,8.1h-5.5L460.7,429.6z M469.2,450.5l-6.5-15.1h-0.1 l-6.6,15.1H469.2z" style="fill: rgb(255, 255, 255);"/>
          <polygon class="st0" points="487.2,433.7 476,433.7 476,429.6 503.1,429.6 503.1,433.7 491.9,433.7 491.9,462.5 487.2,462.5 &#9;&#9;&#9;&#10;&#9;&#9;&#9;&#9;" style="fill: rgb(255, 255, 255);"/>
          <rect x="508.1" y="429.6" class="st0" width="4.7" height="33" style="fill: rgb(255, 255, 255);"/>
          <path class="st0" d="M521.8,429.6H534c8.9,0,11.2,5.1,11.2,9.2c0,4.2-3.3,8.1-8.6,8.7l9.9,15h-5.9l-8.8-14.5h-5.3v14.5h-4.7 V429.6z M526.5,444.1h6.2c3.7,0,7.5-0.8,7.5-5.3c0-4.5-3.7-5.3-7.5-5.3h-6.2V444.1z" style="fill: rgb(255, 255, 255);"/>
          <rect x="551.8" y="429.6" class="st0" width="4.7" height="33" style="fill: rgb(255, 255, 255);"/>
          <polygon class="st0" points="565.1,429.6 572.2,429.6 583.2,454.5 583.4,454.5 594.4,429.6 601.4,429.6 601.4,462.5 596.7,462.5 &#10;&#9;&#9;&#9;&#9;596.7,435.4 596.6,435.4 584.8,462.5 581.7,462.5 570,435.4 569.9,435.4 569.9,462.5 565.1,462.5 &#9;&#9;&#9;" style="fill: rgb(255, 255, 255);"/>
        </g>
      </g>
    </g>
  </g>
</svg>