<?xml version="1.0" encoding="utf-8"?>
<svg xmlns="http://www.w3.org/2000/svg" viewBox="0 167.537 360.275 332.463">
  <g id="Layer_1" transform="matrix(1, 0, 0, 1, 492.606262, -45.545097)">
    <g transform="matrix(1, 0, 0, 1, -119.694016, -76.654892)">
      <g>
        <defs>
          <path id="SVGID_00000100348037932298418420000014732324105606584209_" d="M240.3,322.5v45.4l41.9,37.6V284.3L240.3,322.5z M303.2,266.1v158.1l17.6,15.7l24.3-21.9V228.6L303.2,266.1z M366.1,209.8v189.6l41.9-37.5V172.2L366.1,209.8z M418.5,246.7v36.4 l33.4,15.7l0.1,0.4l-21.5,42.4l21.4,20.1l59.8-68l-18.3-27.3l0,0l9.4-13.7l0.5-0.1l5.8,30.1l28.2-1.6l16.5-43.8l29.1,2.3l18.7-51 l-25.7,38.2l-29.2-9.1l-94.5-84.9l-33.6,30.1v31.3l33.6-27.6l81.8,57.1l-2.9,43.1l-12.8,1.9l-3.9-38.7l-40,16.8l14.8,49.6 l-38.6,49l-7.4-9.8l25.8-46L418.5,246.7z"/>
        </defs>
        <clipPath id="SVGID_00000095309242792667223000000009949072682822380678_">
          <path d="M -372.91 482.1 L -372.91 527.5 L -331.01 565.1 L -331.01 443.9 L -372.91 482.1 Z M -310.01 425.7 L -310.01 583.8 L -292.41 599.5 L -268.11 577.6 L -268.11 388.2 L -310.01 425.7 Z M -247.11 369.4 L -247.11 559 L -205.21 521.5 L -205.21 331.8 L -247.11 369.4 Z M -194.71 406.3 L -194.71 442.7 L -161.31 458.4 L -161.21 458.8 L -182.71 501.2 L -161.31 521.3 L -101.51 453.3 L -119.81 426 L -110.41 412.3 L -109.91 412.2 L -104.11 442.3 L -75.911 440.7 L -59.411 396.9 L -30.312 399.2 L -11.612 348.2 L -37.311 386.4 L -66.511 377.3 L -161.01 292.4 L -194.61 322.5 L -194.61 353.8 L -161.01 326.2 L -79.211 383.3 L -82.111 426.4 L -94.911 428.3 L -98.811 389.6 L -138.81 406.4 L -124.01 456 L -162.61 505 L -170.01 495.2 L -144.21 449.2 L -194.71 406.3 Z" style="overflow: visible;"/>
        </clipPath>
        <linearGradient id="SVGID_00000178179766428474478090000004146842194961912202_" gradientUnits="userSpaceOnUse" x1="-117.6983" y1="837.9745" x2="-117.278" y2="837.974" gradientTransform="matrix(628.692627, -587.682373, -587.682373, -628.692627, 566132.975281, 458232.162491)">
          <stop offset="0" style="stop-color:#303085"/>
          <stop offset="0.1208" style="stop-color:#2F4792"/>
          <stop offset="0.39" style="stop-color:#2B7CBA"/>
          <stop offset="0.5724" style="stop-color:#1BA7DF"/>
          <stop offset="1" style="stop-color:#303085"/>
        </linearGradient>
        <polygon style="clip-path:url(#SVGID_00000095309242792667223000000009949072682822380678_);fill:url(#SVGID_00000178179766428474478090000004146842194961912202_);" points="-525.71 437.6 -179.61 114 142.188 458.2 -204.01 781.8"/>
      </g>
      <g transform="matrix(1, 0, 0, 1, -613.212219, 159.599991)">
        <g>
          <path class="st3" d="M 418.4 382.7 L 433 382.7 C 438.7 382.7 444.5 385.2 444.5 391.7 C 444.5 395.7 441.8 398.4 438 399.5 L 438 399.6 C 442.7 400.1 446.1 403.6 446.1 408.2 C 446.1 416 439 418.4 431.9 418.4 L 418.4 418.4 L 418.4 382.7 L 418.4 382.7 Z M 425.1 397.2 L 431.2 397.2 C 435.7 397.2 437.9 395.4 437.9 392.7 C 437.9 389.6 435.7 388.1 430.6 388.1 L 425.1 388.1 L 425.1 397.2 Z M 425.1 412.9 L 431.3 412.9 C 434.7 412.9 439.5 412.3 439.5 407.7 C 439.5 404 437 402.7 431.5 402.7 L 425.1 402.7 L 425.1 412.9 Z" style="fill: rgb(48, 48, 133);"/>
          <path class="st3" d="M490.8,405.3c0,8.6-6.5,14-15.1,14c-8.6,0-15.1-5.4-15.1-14v-22.6h6.7v22.4c0,3.5,2,8.2,8.4,8.2 c6.4,0,8.4-4.6,8.4-8.2v-22.4h6.7V405.3z" style="fill: rgb(48, 48, 133);"/>
          <polygon class="st3" points="507,382.7 513.7,382.7 513.7,412.6 529.7,412.6 529.7,418.4 507,418.4 &#9;&#9;&#9;" style="fill: rgb(48, 48, 133);"/>
          <polygon class="st3" points="542.5,382.7 549.2,382.7 549.2,412.6 565.2,412.6 565.2,418.4 542.5,418.4 &#9;&#9;&#9;" style="fill: rgb(48, 48, 133);"/>
          <path class="st3" d="M596.4,390.4c-1.4-1.9-4-2.8-6.6-2.8c-3.1,0-6.2,1.3-6.2,4.6c0,7.2,17.8,3.1,17.8,15.8 c0,7.7-6.4,11.4-13.7,11.4c-4.7,0-9.2-1.4-12.3-4.8l5-4.6c1.6,2.4,4.5,3.7,7.4,3.7c3.1,0,6.6-1.6,6.6-4.9 c0-7.8-17.8-3.3-17.8-16.1c0-7.4,6.9-10.8,13.8-10.8c3.9,0,7.9,1.1,10.8,3.7L596.4,390.4z" style="fill: rgb(48, 48, 133);"/>
        </g>
        <g>
          <polygon class="st3" points="431.6,448.5 418.4,429.6 424.5,429.6 434,444 443.7,429.6 449.5,429.6 436.3,448.5 436.3,462.5 &#10;&#9;&#9;&#9;&#9;431.6,462.5 &#9;&#9;&#9;" style="fill: rgb(48, 48, 133);"/>
          <path class="st3" d="M460.7,429.6h4.3l14.9,33h-5.5l-3.5-8.1h-16.6l-3.4,8.1h-5.5L460.7,429.6z M469.2,450.5l-6.5-15.1h-0.1 l-6.6,15.1H469.2z" style="fill: rgb(48, 48, 133);"/>
          <polygon class="st3" points="487.2,433.7 476,433.7 476,429.6 503.1,429.6 503.1,433.7 491.9,433.7 491.9,462.5 487.2,462.5 &#9;&#9;&#9;&#10;&#9;&#9;&#9;&#9;" style="fill: rgb(48, 48, 133);"/>
          <rect x="508.1" y="429.6" class="st3" width="4.7" height="33" style="fill: rgb(48, 48, 133);"/>
          <path class="st3" d="M521.8,429.6H534c8.9,0,11.2,5.1,11.2,9.2c0,4.2-3.3,8.1-8.6,8.7l9.9,15h-5.9l-8.8-14.5h-5.3v14.5h-4.7 V429.6z M526.5,444.1h6.2c3.7,0,7.5-0.8,7.5-5.3c0-4.5-3.7-5.3-7.5-5.3h-6.2V444.1z" style="fill: rgb(48, 48, 133);"/>
          <rect x="551.8" y="429.6" class="st3" width="4.7" height="33" style="fill: rgb(48, 48, 133);"/>
          <polygon class="st3" points="565.1,429.6 572.2,429.6 583.2,454.5 583.4,454.5 594.4,429.6 601.4,429.6 601.4,462.5 596.7,462.5 &#10;&#9;&#9;&#9;&#9;596.7,435.4 596.6,435.4 584.8,462.5 581.7,462.5 570,435.4 569.9,435.4 569.9,462.5 565.1,462.5 &#9;&#9;&#9;" style="fill: rgb(48, 48, 133);"/>
        </g>
      </g>
    </g>
  </g>
</svg>