<svg xmlns="http://www.w3.org/2000/svg" height="973.393" width="1150.653" viewBox="0 0 1150.653 973.393" xml:space="preserve"><defs><clipPath clipPathUnits="userSpaceOnUse" id="a"><path d="M0 1080h1080V0H0Z"/></clipPath><clipPath clipPathUnits="userSpaceOnUse" id="b"><path d="M525.553 831.635v-63.553l85.621 66.862 197.972-136.373-11.132-106.129-30.985-4.453-9.278 93.698-96.852-40.633 30.614-112.995-93.327-118.561-12.617 13.73 62.342 114.293-100.193 86.834-22.165-2.614v-68.82l83.858-37.99.278-1.035-54.92-105.511 46.478-38.593 144.676 164.669-39.103 58.878-.031 1.02 22.76 32.129 1.299.279 14.008-72.732 68.28 3.896 39.89 106.037 70.506-5.567 47.963 143.145-65.126-112.252-66.423 23.75-233.04 191.479zM412.836 730.648V268.05l101.449 87.346v466.143ZM260.605 594.257V211.485l43.552-37.007 57.897 49.848v460.823Zm-152.1-136.271V340.724l101.449-86.201v294.355z"/></clipPath><linearGradient x1="0" y1="0" x2="1" y2="0" gradientUnits="userSpaceOnUse" gradientTransform="scale(860.59576 -860.59576)rotate(-43.069 -.271 -.448)" spreadMethod="pad" id="c"><stop style="stop-opacity:1;stop-color:#2d2e84" offset="0"/><stop style="stop-opacity:1;stop-color:#25abe8" offset=".572"/><stop style="stop-opacity:1;stop-color:#2d2e84" offset="1"/></linearGradient></defs><g transform="translate(6555.414 -1201.688)"/><g transform="translate(6555.414 -1201.688)"/><g clip-path="url(#a)" transform="matrix(1.33333 0 0 -1.33333 -144.673 1206.03)"><path d="M0 0h14.893c8.344 0 19.9 1.341 19.9 12.682 0 9.024-6.163 12.195-19.259 12.195H0Zm0 38.047h14.764c10.785 0 16.177 4.391 16.177 10.853 0 7.44-5.392 11.098-17.589 11.098H0Zm-16.177 35.121h35.435c13.737 0 27.86-5.975 27.86-21.706 0-9.756-6.42-16.22-15.792-18.902v-.245C42.753 31.097 50.97 22.56 50.97 11.463c0-18.78-17.204-24.634-34.408-24.634h-32.739z" style="fill:#2c3792;fill-opacity:1;fill-rule:nonzero;stroke:none" transform="translate(544.611 283.293)"/><path d="M0 0c0-20.853-15.792-33.901-36.591-33.901S-73.181-20.853-73.181 0v54.633h16.177V.488c0-8.536 4.878-19.756 20.413-19.756S-16.177-8.048-16.177.488v54.145H0Z" style="fill:#2c3792;fill-opacity:1;fill-rule:nonzero;stroke:none" transform="translate(703.68 301.828)"/><path d="M0 0h16.177v-72.437h38.644v-13.902H0Z" style="fill:#2c3792;fill-opacity:1;fill-rule:nonzero;stroke:none" transform="translate(742.836 356.46)"/><path d="M0 0h16.177v-72.437h38.644v-13.902H0Z" style="fill:#2c3792;fill-opacity:1;fill-rule:nonzero;stroke:none" transform="translate(828.726 356.46)"/><path d="M0 0c-3.467 4.634-9.629 6.828-15.92 6.828-7.447 0-14.893-3.17-14.893-11.097 0-17.316 43.138-7.438 43.138-38.169 0-18.537-15.407-27.561-33.253-27.561-11.298 0-22.339 3.293-29.785 11.707l12.196 11.22c3.981-5.732 10.785-9.025 17.975-9.025 7.446 0 15.92 3.903 15.92 11.829 0 18.903-43.139 8.049-43.139 38.902 0 17.804 16.691 26.096 33.51 26.096 9.5 0 19.001-2.56 26.063-8.902z" style="fill:#2c3792;fill-opacity:1;fill-rule:nonzero;stroke:none" transform="translate(959.165 337.926)"/><path d="m0 0-32.102 46.065h14.733L5.749 10.779l23.837 35.286h14.015L11.498 0v-34.266H0Z" style="fill:#2c3792;fill-opacity:1;fill-rule:nonzero;stroke:none" transform="translate(557.665 211.764)"/><path d="m0 0-15.812 36.875h-.238L-32.102 0Zm-20.602 50.944h10.419l36.296-80.33H12.697L4.193-9.531h-40.368l-8.384-19.855h-13.417z" style="fill:#2c3792;fill-opacity:1;fill-rule:nonzero;stroke:none" transform="translate(649.295 206.885)"/><path d="M0 0h-27.312v10.211H38.81V0H11.498v-70.119H0Z" style="fill:#2c3792;fill-opacity:1;fill-rule:nonzero;stroke:none" transform="translate(693.13 247.618)"/><path d="M744.149 257.829h11.5v-80.33h-11.5z" style="fill:#2c3792;fill-opacity:1;fill-rule:nonzero;stroke:none"/><path d="M0 0h15.092c9.104 0 18.207 2.042 18.207 12.935 0 10.891-9.103 12.933-18.207 12.933H0Zm-11.5 35.4h29.826c21.681 0 27.192-12.368 27.192-22.465 0-10.211-8.027-19.856-20.843-21.218L48.75-44.931H34.377l-21.561 35.4H0v-35.4h-11.5z" style="fill:#2c3792;fill-opacity:1;fill-rule:nonzero;stroke:none" transform="translate(788.946 222.43)"/><path d="M850.625 257.829h11.5v-80.33h-11.5z" style="fill:#2c3792;fill-opacity:1;fill-rule:nonzero;stroke:none"/><path d="M0 0h17.129L44.08-60.814h.479L71.271 0H88.4v-80.33H76.9v66.033h-.239L48.032-80.33h-7.666L11.739-14.297h-.241V-80.33H0Z" style="fill:#2c3792;fill-opacity:1;fill-rule:nonzero;stroke:none" transform="translate(883.085 257.83)"/></g><g clip-path="url(#b)" transform="matrix(1.33333 0 0 -1.33333 -144.673 1206.03)"><path d="M525.553 831.635v-63.553l85.621 66.862 197.972-136.373-11.132-106.129-30.985-4.453-9.278 93.698-96.852-40.633 30.614-112.995-93.327-118.561-12.617 13.73 62.342 114.293-100.193 86.834-22.165-2.614v-68.82l83.858-37.99.278-1.035-54.92-105.511 46.478-38.593 144.676 164.669-39.103 58.878-.031 1.02 22.76 32.129 1.299.279 14.008-72.732 68.28 3.896 39.89 106.037 70.506-5.567 47.963 143.145-65.126-112.252-66.423 23.75-233.04 191.479zM412.836 730.648V268.05l101.449 87.346v466.143ZM260.605 594.257V211.485l43.552-37.007 57.897 49.848v460.823Zm-152.1-136.271V340.724l101.449-86.201v294.355z" style="fill:url(#c);stroke:none"/></g></svg>